<svg width="64" height="64" viewBox="0 0 64 64" fill="none" xmlns="http://www.w3.org/2000/svg">
<rect width="64" height="64" rx="16" fill="#F8CB46"/>
<path d="M14.4015 30.4019C15.1967 30.4019 15.9066 30.6006 16.5313 30.998C17.1617 31.3897 17.6558 31.9461 18.0136 32.6672C18.3601 33.3598 18.5333 34.1746 18.5333 35.1113C18.5333 36.0197 18.3601 36.8316 18.0136 37.547C17.6672 38.2623 17.1788 38.8216 16.5484 39.2247C15.9123 39.6335 15.1967 39.8379 14.4015 39.8379C13.8222 39.8379 13.277 39.7186 12.7659 39.4802C12.2547 39.2417 11.8174 38.9067 11.4539 38.4753V39.6214H8.48926L8.48926 27.4297H11.4539V31.7559C11.8174 31.3244 12.2547 30.9923 12.7659 30.7595C13.277 30.5211 13.8222 30.4019 14.4015 30.4019ZM13.5155 37.3767C13.9358 37.3767 14.3107 37.2801 14.6401 37.0871C14.9695 36.8941 15.2279 36.6244 15.4153 36.2781C15.6027 35.9374 15.6964 35.5485 15.6964 35.1113C15.6964 34.6855 15.6027 34.2995 15.4153 33.9531C15.2279 33.6068 14.9695 33.3371 14.6401 33.1441C14.3107 32.951 13.9358 32.8545 13.5155 32.8545C13.118 32.8545 12.763 32.951 12.4507 33.1441C12.1383 33.3314 11.8941 33.5954 11.718 33.9361C11.5419 34.2824 11.4539 34.6742 11.4539 35.1113C11.4539 35.5485 11.5419 35.9402 11.718 36.2866C11.8941 36.6272 12.1383 36.8941 12.4507 37.0871C12.763 37.2801 13.118 37.3767 13.5155 37.3767Z" fill="#1F1F1F"/>
<path d="M18.9392 39.6214V27.4297H21.9038V39.6214H18.9392Z" fill="#1F1F1F"/>
<path d="M22.7442 39.6214V30.6039H25.6918V39.6214H22.7442Z" fill="#1F1F1F"/>
<path d="M32.0951 30.4019C32.7255 30.4019 33.2934 30.5495 33.7989 30.8447C34.3044 31.1343 34.7019 31.543 34.9916 32.071C35.2699 32.6047 35.409 33.2094 35.409 33.885V39.6214H32.5807V34.5493C32.5807 34.22 32.5154 33.9276 32.3847 33.6721C32.2598 33.4109 32.0809 33.2094 31.848 33.0674C31.6209 32.9255 31.3539 32.8545 31.0472 32.8545C30.7576 32.8545 30.4907 32.9255 30.2464 33.0674C30.0022 33.2037 29.812 33.3911 29.6757 33.6295C29.5337 33.8566 29.4627 34.1235 29.4627 34.43L29.4456 39.6214H26.498V30.6062H29.4456V31.6367C29.7239 31.2506 30.0959 30.9497 30.5617 30.734C31.0274 30.5126 31.5385 30.4019 32.0951 30.4019Z" fill="#1F1F1F"/>
<path d="M41.9231 34.5493L45.2676 39.6214H41.9196L39.9637 36.4314L39.0607 37.4789V39.6214H36.096V27.4297H39.0607V34.166L41.9108 30.6015L45.2565 30.6039L41.9231 34.5493Z" fill="#1F1F1F"/>
<path d="M22.7426 27.4306H25.6998V29.7382H22.7426V27.4306Z" fill="#1F1F1F"/>
<path d="M45.7183 39.6219V30.6038H48.6755V39.6219H45.7183Z" fill="#0C831F"/>
<path d="M54.9219 37.0515L55.5097 38.9507C55.2428 39.2061 54.9048 39.4134 54.4959 39.5723C54.0927 39.7313 53.698 39.8108 53.3118 39.8108C52.7552 39.8108 52.2582 39.6887 51.8209 39.4446C51.3836 39.1948 51.0428 38.8485 50.7986 38.4056C50.5544 37.9741 50.4323 37.4773 50.4323 36.9153V32.9364H49.2481V30.6038H50.4323V27.4307H53.2607V30.6038H55.1263V32.9364H53.2607V36.3702C53.2607 36.6598 53.3373 36.8954 53.4907 37.0771C53.644 37.2588 53.84 37.3496 54.0785 37.3496C54.2489 37.3496 54.4079 37.324 54.5556 37.273C54.7032 37.2219 54.8253 37.148 54.9219 37.0515Z" fill="#0C831F"/>
<path d="M45.7183 27.4307H48.6755V29.7382H45.7183V27.4307Z" fill="#0C831F"/>
</svg>
